<?xml version="1.0" encoding="utf-8"?>
<!-- Generator: Adobe Illustrator 16.0.0, SVG Export Plug-In . SVG Version: 6.00 Build 0)  -->
<!DOCTYPE svg PUBLIC "-//W3C//DTD SVG 1.1//EN" "http://www.w3.org/Graphics/SVG/1.1/DTD/svg11.dtd">
<svg version="1.1" xmlns="http://www.w3.org/2000/svg" xmlns:xlink="http://www.w3.org/1999/xlink" x="0px" y="0px" width="100px"
	 height="100px" viewBox="-0.459 0 100 100" enable-background="new -0.459 0 100 100" xml:space="preserve">
<g id="Your_Icon" display="none">
	<path display="inline" d="M49.541,11.538c21.242,0,38.462,17.22,38.462,38.462c0,21.242-17.22,38.462-38.462,38.462
		c-21.242,0-38.462-17.22-38.462-38.462C11.079,28.758,28.299,11.538,49.541,11.538 M49.541,0c-27.57,0-50,22.43-50,50
		s22.43,50,50,50s50-22.43,50-50S77.111,0,49.541,0L49.541,0z"/>
	<polygon display="inline" fill="#404040" points="49.541,50.002 49.541,49.998 49.541,49.998 	"/>
	<path display="inline" fill="#1D1D1B" d="M74.075,38.539h0.004c0-0.846-0.296-1.564-0.887-2.154l-4.306-4.305
		c-0.59-0.592-1.309-0.887-2.154-0.887c-0.843,0-1.562,0.295-2.152,0.887L43.812,52.883l-9.311-9.341
		c-0.592-0.59-1.31-0.89-2.153-0.887c-0.844-0.003-1.563,0.297-2.153,0.887l-4.306,4.305c-0.591,0.592-0.887,1.31-0.887,2.155
		c0,0.842,0.296,1.56,0.887,2.15l11.46,11.462l4.307,4.306c0.591,0.592,1.308,0.887,2.153,0.887c0.843,0,1.562-0.295,2.153-0.887
		l4.304-4.306l22.922-22.921C73.779,40.103,74.075,39.385,74.075,38.539z"/>
</g>
<g id="Layer_2" display="none">
	<path display="inline" d="M49.541,11.538c21.242,0,38.462,17.22,38.462,38.462c0,21.242-17.22,38.462-38.462,38.462
		c-21.242,0-38.462-17.22-38.462-38.462C11.079,28.758,28.299,11.538,49.541,11.538 M49.541,0c-27.57,0-50,22.43-50,50
		s22.43,50,50,50s50-22.43,50-50S77.111,0,49.541,0L49.541,0z"/>
	<polygon display="inline" fill="#404040" points="49.541,50.002 49.541,49.998 49.541,49.998 	"/>
	<path display="inline" fill="#1D1D1B" d="M30.731,61.461c0,0.845,0.296,1.563,0.887,2.153l4.305,4.306
		c0.592,0.592,1.311,0.887,2.154,0.887s1.562-0.295,2.152-0.887l9.312-9.308l9.307,9.308c0.592,0.592,1.311,0.887,2.156,0.887
		s1.562-0.295,2.153-0.887l4.306-4.306c0.592-0.59,0.888-1.309,0.888-2.153s-0.296-1.56-0.888-2.151l-9.309-9.312l9.309-9.309
		c0.592-0.59,0.888-1.309,0.888-2.15c0-0.846-0.296-1.564-0.888-2.154l-4.306-4.305c-0.591-0.591-1.308-0.891-2.153-0.886
		c-0.846-0.004-1.564,0.295-2.156,0.886l-9.307,9.308l-9.312-9.308c-0.59-0.591-1.309-0.891-2.152-0.886
		c-0.844-0.004-1.562,0.295-2.154,0.886l-4.305,4.305c-0.591,0.59-0.887,1.309-0.887,2.154c0,0.841,0.296,1.56,0.887,2.15
		l9.309,9.309l-9.309,9.312C31.027,59.901,30.731,60.616,30.731,61.461z"/>
</g>
<g id="Layer_3" display="none">
	<path display="inline" d="M49.541,11.538c21.242,0,38.462,17.22,38.462,38.462c0,21.242-17.22,38.462-38.462,38.462
		c-21.242,0-38.462-17.22-38.462-38.462C11.079,28.758,28.299,11.538,49.541,11.538 M49.541,0c-27.57,0-50,22.43-50,50
		s22.43,50,50,50s50-22.43,50-50S77.111,0,49.541,0L49.541,0z"/>
	<polygon display="inline" fill="#404040" points="49.541,50.002 49.541,49.998 49.541,49.998 	"/>
	<path display="inline" fill="#1D1D1B" d="M46.272,26.539c-0.759-0.801-1.708-1.203-2.848-1.203c-1.141,0-2.091,0.402-2.85,1.203
		l-2.405,2.376c-0.783,0.78-1.172,1.729-1.172,2.848c0,1.096,0.389,2.057,1.172,2.882l15.384,15.354L38.17,65.388
		c-0.783,0.78-1.172,1.729-1.172,2.85c0,1.095,0.389,2.056,1.172,2.88l2.405,2.372c0.778,0.78,1.73,1.171,2.85,1.175
		c1.118-0.004,2.07-0.395,2.848-1.175l20.643-20.61c0.778-0.825,1.169-1.785,1.169-2.881c0-1.117-0.391-2.064-1.169-2.845
		L46.272,26.539z"/>
</g>
<g id="Layer_4" display="none">
	<path display="inline" d="M49.541,11.538c21.242,0,38.462,17.22,38.462,38.462c0,21.242-17.22,38.462-38.462,38.462
		c-21.242,0-38.462-17.22-38.462-38.462C11.079,28.758,28.299,11.538,49.541,11.538 M49.541,0c-27.57,0-50,22.43-50,50
		s22.43,50,50,50s50-22.43,50-50S77.111,0,49.541,0L49.541,0z"/>
	<path display="inline" fill="#1D1D1B" d="M62.087,31.765c0-1.133-0.391-2.089-1.171-2.869l-2.374-2.372
		c-0.78-0.779-1.737-1.17-2.866-1.17c-1.132,0-2.084,0.391-2.869,1.17l-20.64,20.61c-0.782,0.78-1.172,1.736-1.172,2.868
		c0,1.13,0.39,2.086,1.172,2.865l20.64,20.61v-0.005c0.785,0.781,1.737,1.172,2.869,1.174c1.129-0.002,2.086-0.393,2.866-1.174
		l2.374-2.371c0.78-0.784,1.171-1.733,1.171-2.848c0-1.122-0.391-2.08-1.171-2.882L45.527,50.019l15.389-15.39
		C61.696,33.85,62.087,32.894,62.087,31.765z"/>
	<polygon display="inline" fill="#404040" points="49.541,50.002 49.541,49.998 49.541,49.998 	"/>
</g>
<g id="Layer_5">
	<g>
		<path d="M71.642,29.888l-6.706,6.706c3.454,3.42,5.593,8.163,5.593,13.406c0,5.241-2.139,9.986-5.593,13.406l6.706,6.703
			c5.143-5.148,8.323-12.256,8.323-20.109S76.784,35.04,71.642,29.888z"/>
		<path d="M98.834,50c0-13.06-5.309-24.88-13.883-33.421l-6.638,6.639C85.162,30.075,89.398,39.542,89.398,50
			s-4.236,19.923-11.085,26.783l6.638,6.639C93.525,74.881,98.834,63.062,98.834,50z"/>
		<polygon points="0.248,68.866 25.111,68.866 52.132,93.877 52.132,6.125 25.621,31.133 0.248,31.133 		"/>
	</g>
</g>
<g id="Layer_6" display="none">
	<g display="inline">
		<path fill="#1D1D1B" d="M60.922,61.461c0,0.845,0.296,1.563,0.887,2.153l4.305,4.306c0.592,0.592,1.311,0.887,2.154,0.887
			s1.562-0.295,2.152-0.887l9.312-9.308l9.307,9.308c0.592,0.592,1.311,0.887,2.156,0.887s1.562-0.295,2.153-0.887l4.306-4.306
			c0.592-0.59,0.888-1.309,0.888-2.153s-0.296-1.56-0.888-2.151l-9.309-9.312l9.309-9.309c0.592-0.59,0.888-1.309,0.888-2.15
			c0-0.846-0.296-1.564-0.888-2.154l-4.306-4.305c-0.591-0.591-1.308-0.891-2.153-0.886c-0.846-0.004-1.564,0.295-2.156,0.886
			l-9.307,9.308L70.42,32.08c-0.59-0.591-1.309-0.891-2.152-0.886c-0.844-0.004-1.562,0.295-2.154,0.886l-4.305,4.305
			c-0.591,0.59-0.887,1.309-0.887,2.154c0,0.841,0.296,1.56,0.887,2.15l9.309,9.309l-9.309,9.312
			C61.218,59.901,60.922,60.616,60.922,61.461z"/>
		<polygon points="0.248,68.866 25.111,68.866 52.132,93.877 52.132,6.125 25.621,31.133 0.248,31.133 		"/>
	</g>
</g>
</svg>
